{"asset":{"version":"2.0","generator":"Empire of Kings Infernal Dragon Weapon Pilot"},"scene":0,"scenes":[{"nodes":[0]}],"nodes":[{"name":"Rifle del Dragon Infernal","mesh":0}],"meshes":[{"name":"Rifle_Dragon_Infernal","primitives":[{"attributes":{"POSITION":0},"indices":1,"material":0},{"attributes":{"POSITION":0},"indices":2,"material":0},{"attributes":{"POSITION":0},"indices":3,"material":1},{"attributes":{"POSITION":0},"indices":4,"material":2},{"attributes":{"POSITION":0},"indices":5,"material":0},{"attributes":{"POSITION":0},"indices":6,"material":1},{"attributes":{"POSITION":0},"indices":7,"material":0},{"attributes":{"POSITION":0},"indices":8,"material":1},{"attributes":{"POSITION":0},"indices":9,"material":2},{"attributes":{"POSITION":0},"indices":10,"material":0},{"attributes":{"POSITION":0},"indices":11,"material":1},{"attributes":{"POSITION":0},"indices":12,"material":0},{"attributes":{"POSITION":0},"indices":13,"material":3},{"attributes":{"POSITION":0},"indices":14,"material":0},{"attributes":{"POSITION":0},"indices":15,"material":1},{"attributes":{"POSITION":0},"indices":16,"material":0},{"attributes":{"POSITION":0},"indices":17,"material":1},{"attributes":{"POSITION":0},"indices":18,"material":3},{"attributes":{"POSITION":0},"indices":19,"material":0},{"attributes":{"POSITION":0},"indices":20,"material":1},{"attributes":{"POSITION":0},"indices":21,"material":3},{"attributes":{"POSITION":0},"indices":22,"material":0},{"attributes":{"POSITION":0},"indices":23,"material":0},{"attributes":{"POSITION":0},"indices":24,"material":3},{"attributes":{"POSITION":0},"indices":25,"material":0},{"attributes":{"POSITION":0},"indices":26,"material":3},{"attributes":{"POSITION":0},"indices":27,"material":0},{"attributes":{"POSITION":0},"indices":28,"material":3},{"attributes":{"POSITION":0},"indices":29,"material":0},{"attributes":{"POSITION":0},"indices":30,"material":3},{"attributes":{"POSITION":0},"indices":31,"material":0},{"attributes":{"POSITION":0},"indices":32,"material":1},{"attributes":{"POSITION":0},"indices":33,"material":0},{"attributes":{"POSITION":0},"indices":34,"material":1},{"attributes":{"POSITION":0},"indices":35,"material":0},{"attributes":{"POSITION":0},"indices":36,"material":1},{"attributes":{"POSITION":0},"indices":37,"material":0},{"attributes":{"POSITION":0},"indices":38,"material":1},{"attributes":{"POSITION":0},"indices":39,"material":0},{"attributes":{"POSITION":0},"indices":40,"material":1},{"attributes":{"POSITION":0},"indices":41,"material":0},{"attributes":{"POSITION":0},"indices":42,"material":1},{"attributes":{"POSITION":0},"indices":43,"material":2},{"attributes":{"POSITION":0},"indices":44,"material":0},{"attributes":{"POSITION":0},"indices":45,"material":2},{"attributes":{"POSITION":0},"indices":46,"material":0},{"attributes":{"POSITION":0},"indices":47,"material":2},{"attributes":{"POSITION":0},"indices":48,"material":2},{"attributes":{"POSITION":0},"indices":49,"material":3}]}],"materials":[{"name":"Obsidiana negra","pbrMetallicRoughness":{"baseColorFactor":[0.045,0.035,0.03,1],"metallicFactor":0.9,"roughnessFactor":0.24},"emissiveFactor":[0.015,0.008,0.003]},{"name":"Hierro quemado","pbrMetallicRoughness":{"baseColorFactor":[0.16,0.09,0.055,1],"metallicFactor":0.82,"roughnessFactor":0.3},"emissiveFactor":[0.02,0.006,0.002]},{"name":"Runas de magma","pbrMetallicRoughness":{"baseColorFactor":[1.0,0.16,0.015,1],"metallicFactor":0.35,"roughnessFactor":0.22},"emissiveFactor":[1.0,0.06,0.005],"emissiveStrength":2.5},{"name":"Bronce draconico","pbrMetallicRoughness":{"baseColorFactor":[0.45,0.22,0.045,1],"metallicFactor":0.9,"roughnessFactor":0.2},"emissiveFactor":[0.04,0.01,0.002]} ,{"name":"Ojo infernal","pbrMetallicRoughness":{"baseColorFactor":[1.0,0.32,0.01,1],"metallicFactor":0.25,"roughnessFactor":0.18},"emissiveFactor":[1.0,0.12,0.01],"emissiveStrength":2.5}],"buffers":[{"uri":"data:application/octet-stream;base64,","byteLength":18552}],"bufferViews":[{"buffer":0,"byteOffset":0,"byteLength":8664,"target":34962},{"buffer":0,"byteOffset":8664,"byteLength":96,"target":34963}],"accessors":[{"bufferView":0,"componentType":5126,"count":722,"type":"VEC3","min":[-2.1099999,-1.22000003,-0.44],"max":[2.19499993,1.42999995,0.44]}]}